<svg width="34" height="19" viewBox="0 0 34 19" fill="none" xmlns="http://www.w3.org/2000/svg">
<rect width="34" height="19" fill="white"/>
<rect width="12" height="8" fill="#2400B3"/>
<line x1="12" y1="2" x2="34" y2="2" stroke="#B71515" stroke-width="4"/>
<line y1="10.5" x2="34" y2="10.5" stroke="#B71515" stroke-width="3"/>
<line y1="18" x2="34" y2="18" stroke="#B71515" stroke-width="2"/>
<line y1="14.5" x2="34" y2="14.5" stroke="#B71515" stroke-width="3"/>
<line x1="12" y1="6.5" x2="34" y2="6.5" stroke="#B71515" stroke-width="3"/>
<path d="M4 5L4.22451 5.69098H4.95106L4.36327 6.11803L4.58779 6.80902L4 6.38197L3.41221 6.80902L3.63673 6.11803L3.04894 5.69098H3.77549L4 5Z" fill="white"/>
<path d="M4 0L4.22451 0.690983H4.95106L4.36327 1.11803L4.58779 1.80902L4 1.38197L3.41221 1.80902L3.63673 1.11803L3.04894 0.690983H3.77549L4 0Z" fill="white"/>
<path d="M10 0L10.2245 0.690983H10.9511L10.3633 1.11803L10.5878 1.80902L10 1.38197L9.41221 1.80902L9.63673 1.11803L9.04894 0.690983H9.77549L10 0Z" fill="white"/>
<path d="M2 2L2.22451 2.69098H2.95106L2.36327 3.11803L2.58779 3.80902L2 3.38197L1.41221 3.80902L1.63673 3.11803L1.04894 2.69098H1.77549L2 2Z" fill="white"/>
<path d="M10 5L10.2245 5.69098H10.9511L10.3633 6.11803L10.5878 6.80902L10 6.38197L9.41221 6.80902L9.63673 6.11803L9.04894 5.69098H9.77549L10 5Z" fill="white"/>
<path d="M7 2L7.22451 2.69098H7.95106L7.36327 3.11803L7.58779 3.80902L7 3.38197L6.41221 3.80902L6.63673 3.11803L6.04894 2.69098H6.77549L7 2Z" fill="white"/>
</svg>
